<svg id="visual" viewBox="0 0 960 540" width="960" height="540" xmlns="http://www.w3.org/2000/svg" xmlns:xlink="http://www.w3.org/1999/xlink" version="1.1"><path d="M0 315L22.8 327.2C45.7 339.3 91.3 363.7 137 374.8C182.7 386 228.3 384 274 378.3C319.7 372.7 365.3 363.3 411.2 352.5C457 341.7 503 329.3 548.8 330.5C594.7 331.7 640.3 346.3 686 355.8C731.7 365.3 777.3 369.7 823 370.5C868.7 371.3 914.3 368.7 937.2 367.3L960 366L960 541L937.2 541C914.3 541 868.7 541 823 541C777.3 541 731.7 541 686 541C640.3 541 594.7 541 548.8 541C503 541 457 541 411.2 541C365.3 541 319.7 541 274 541C228.3 541 182.7 541 137 541C91.3 541 45.7 541 22.8 541L0 541Z" fill="#009473"></path><path d="M0 364L22.8 367.7C45.7 371.3 91.3 378.7 137 380.3C182.7 382 228.3 378 274 377.5C319.7 377 365.3 380 411.2 377.2C457 374.3 503 365.7 548.8 361.7C594.7 357.7 640.3 358.3 686 370.3C731.7 382.3 777.3 405.7 823 417.2C868.7 428.7 914.3 428.3 937.2 428.2L960 428L960 541L937.2 541C914.3 541 868.7 541 823 541C777.3 541 731.7 541 686 541C640.3 541 594.7 541 548.8 541C503 541 457 541 411.2 541C365.3 541 319.7 541 274 541C228.3 541 182.7 541 137 541C91.3 541 45.7 541 22.8 541L0 541Z" fill="#0097ad"></path><path d="M0 430L22.8 432.8C45.7 435.7 91.3 441.3 137 443.7C182.7 446 228.3 445 274 443.2C319.7 441.3 365.3 438.7 411.2 435C457 431.3 503 426.7 548.8 428.8C594.7 431 640.3 440 686 441.5C731.7 443 777.3 437 823 432.2C868.7 427.3 914.3 423.7 937.2 421.8L960 420L960 541L937.2 541C914.3 541 868.7 541 823 541C777.3 541 731.7 541 686 541C640.3 541 594.7 541 548.8 541C503 541 457 541 411.2 541C365.3 541 319.7 541 274 541C228.3 541 182.7 541 137 541C91.3 541 45.7 541 22.8 541L0 541Z" fill="#0090d1"></path><path d="M0 487L22.8 484.5C45.7 482 91.3 477 137 468.7C182.7 460.3 228.3 448.7 274 449C319.7 449.3 365.3 461.7 411.2 465C457 468.3 503 462.7 548.8 457.3C594.7 452 640.3 447 686 449.7C731.7 452.3 777.3 462.7 823 465.2C868.7 467.7 914.3 462.3 937.2 459.7L960 457L960 541L937.2 541C914.3 541 868.7 541 823 541C777.3 541 731.7 541 686 541C640.3 541 594.7 541 548.8 541C503 541 457 541 411.2 541C365.3 541 319.7 541 274 541C228.3 541 182.7 541 137 541C91.3 541 45.7 541 22.8 541L0 541Z" fill="#0080ef"></path><path d="M0 482L22.8 480.8C45.7 479.7 91.3 477.3 137 477.7C182.7 478 228.3 481 274 484.5C319.7 488 365.3 492 411.2 491C457 490 503 484 548.8 481.2C594.7 478.3 640.3 478.7 686 480C731.7 481.3 777.3 483.7 823 487.5C868.7 491.3 914.3 496.7 937.2 499.3L960 502L960 541L937.2 541C914.3 541 868.7 541 823 541C777.3 541 731.7 541 686 541C640.3 541 594.7 541 548.8 541C503 541 457 541 411.2 541C365.3 541 319.7 541 274 541C228.3 541 182.7 541 137 541C91.3 541 45.7 541 22.8 541L0 541Z" fill="#0066ff"></path></svg>