<?xml version="1.0" encoding="UTF-8" standalone="no"?>
<!-- Created with Inkscape (http://www.inkscape.org/) -->

<svg
   width="150.19336mm"
   height="150mm"
   viewBox="0 0 150.19336 150"
   version="1.1"
   id="svg1"
   xml:space="preserve"
   inkscape:version="1.3.2 (091e20e, 2023-11-25, custom)"
   sodipodi:docname="disegno.svg"
   xmlns:inkscape="http://www.inkscape.org/namespaces/inkscape"
   xmlns:sodipodi="http://sodipodi.sourceforge.net/DTD/sodipodi-0.dtd"
   xmlns:xlink="http://www.w3.org/1999/xlink"
   xmlns="http://www.w3.org/2000/svg"
   xmlns:svg="http://www.w3.org/2000/svg"><sodipodi:namedview
     id="namedview1"
     pagecolor="#ffffff"
     bordercolor="#000000"
     borderopacity="0.25"
     inkscape:showpageshadow="2"
     inkscape:pageopacity="0.0"
     inkscape:pagecheckerboard="0"
     inkscape:deskcolor="#d1d1d1"
     inkscape:document-units="mm"
     inkscape:zoom="1.3684019"
     inkscape:cx="357.71655"
     inkscape:cy="297.06185"
     inkscape:window-width="1920"
     inkscape:window-height="1057"
     inkscape:window-x="-8"
     inkscape:window-y="-8"
     inkscape:window-maximized="1"
     inkscape:current-layer="layer1"
     showguides="false"><inkscape:page
       x="0"
       y="0"
       width="150.19337"
       height="150"
       id="page1"
       margin="0"
       bleed="0" /></sodipodi:namedview><defs
     id="defs1"><linearGradient
       id="linearGradient56"
       inkscape:collect="always"><stop
         style="stop-color:#50dcc3;stop-opacity:1;"
         offset="0"
         id="stop57" /><stop
         style="stop-color:#328228;stop-opacity:1;"
         offset="1"
         id="stop58" /></linearGradient><rect
       x="482.99918"
       y="186.45004"
       width="184.88033"
       height="41.59692"
       id="rect5" /><radialGradient
       inkscape:collect="always"
       xlink:href="#linearGradient56"
       id="radialGradient58"
       cx="110"
       cy="110"
       fx="110"
       fy="110"
       r="75"
       gradientUnits="userSpaceOnUse"
       gradientTransform="matrix(0.99612799,0,0,1,-19.031039,-3.6736892)" /></defs><g
     inkscape:label="Livello 1"
     inkscape:groupmode="layer"
     id="layer1"
     style="opacity:1"
     transform="matrix(0.99871099,0,0,1,-15.426326,-31.326311)"><rect
       style="fill:url(#radialGradient58);fill-opacity:1;stroke-width:0;stroke-dasharray:none"
       id="rect1"
       width="150.1936"
       height="150"
       x="15.446237"
       y="31.326311"
       ry="9.4742508" /></g><g
     inkscape:groupmode="layer"
     id="layer2"
     inkscape:label="Livello 2"
     transform="translate(-15.468165,-31.516389)"><path
       style="fill:#000000"
       d="m 77.588566,177.52879 c 0.126815,-5.35028 0.09311,-5.2878 4.180245,-7.74889 1.67652,-1.00953 4.23613,-2.69839 5.68803,-3.75302 1.45189,-1.05463 2.70402,-1.85495 2.78251,-1.77847 0.0785,0.0765 0.21724,3.99527 0.30833,8.70843 l 0.16561,8.56939 -1.45649,0.19451 c -0.80108,0.10698 -3.77753,0.1945 -6.61435,0.1945 h -5.157856 z m -17.271607,0.95566 c -0.24178,-0.93858 -0.737382,-0.53057 5.878556,-4.83956 14.282006,-9.30192 19.880436,-14.79764 24.711236,-24.25789 5.59909,-10.96479 6.10624,-22.97915 1.25971,-29.84236 -1.27146,-1.80053 -1.46229,-6.58441 -0.24979,-6.26204 9.245459,2.45815 16.201379,12.13445 15.652369,21.77383 -0.87782,15.41243 -13.311779,27.8585 -41.663185,41.70371 -5.863809,2.86355 -5.337271,2.7011 -5.588896,1.72431 z M 77.63171,153.53086 c 0.210544,-11.59941 0.390769,-12.81967 2.276719,-15.41516 0.622032,-0.85605 1.431072,-1.96482 1.797872,-2.46393 2.03524,-2.76941 1.46931,-6.49194 -1.799922,-11.83929 l -0.996804,-1.63044 -0.15213,-8.15217 -0.15213,-8.15218 -0.823245,-1.36438 c -0.6583,-1.09102 -1.206955,-1.54428 -2.738337,-2.26221 -3.321417,-1.55712 -4.397179,-3.324089 -4.059076,-6.667153 0.271792,-2.687391 0.401989,-2.700362 -4.371004,0.435467 -3.172934,2.084597 -6.345934,-3.736354 -3.66085,-6.715927 2.30425,-2.556971 3.804886,-2.517449 6.376361,0.16793 1.117275,1.166765 2.110483,1.996732 2.20713,1.844371 0.223819,-0.352843 2.657257,-9.362381 2.657257,-9.838204 0,-0.198524 -1.121019,0.234652 -2.535151,0.979615 -3.7947,1.999045 -5.198467,1.75773 -6.425987,-1.104661 -1.11026,-2.588957 -0.287508,-4.58342 2.416934,-5.858983 1.899366,-0.895844 2.483335,-0.710007 4.086622,1.300494 2.594197,3.25309 2.51651,3.305591 3.994594,-2.699565 1.335138,-5.424401 1.375629,-5.110103 -0.508359,-3.946009 -3.664651,2.264344 -6.172913,1.771971 -7.133083,-1.400227 -1.315742,-4.346937 4.432604,-8.041392 6.442031,-4.140286 1.221379,2.371186 2.533155,3.252498 2.853278,1.916966 2.671032,-11.143361 2.587318,-11.459088 -2.077226,-7.834301 -1.406252,1.092789 -2.45259,0.978166 -3.578251,-0.391984 -2.135067,-2.598796 -1.74771,-5.131074 1.074778,-7.026174 2.406565,-1.615838 3.297561,-1.309848 5.456037,1.873734 1.235409,1.822133 1.314619,1.798767 2.931753,-0.864808 3.19025,-5.254639 7.1785,-6.845538 11.6622,-4.652007 5.78341,2.829378 6.79906,9.499647 2.1704,14.254094 -2.98671,3.067885 -3.29033,5.519004 -1.53154,12.364036 4.1336,16.087457 4.34354,18.302813 1.87381,19.772469 -0.82198,0.48913 -2.20914,1.556324 -3.0826,2.371544 -2.87215,2.68066 -2.75,1.19401 -2.33274,28.389499 l 0.36012,23.47122 -1.44116,2.46568 c -2.45597,4.20191 -9.995708,13.11431 -11.094481,13.11431 -0.235473,0 -0.276919,-2.96866 -0.14382,-10.30138 z m 36.19355,-7.97273 c -3.01348,-1.44742 -2.98216,-6.52814 0.0489,-7.92951 3.31633,-1.53327 6.99965,0.71282 6.945,4.23506 -0.049,3.15737 -3.88896,5.18579 -6.99389,3.69445 z m -43.268072,-7.26089 c -12.826303,-2.0711 -10.302483,-18.68875 3.651539,-24.04291 3.348423,-1.28479 3.33168,-1.2835 3.33168,-0.25587 0,0.80209 -0.134709,0.93322 -1.262656,1.22915 -3.895649,1.02203 -6.690534,3.09336 -8.197074,6.07496 -1.511594,2.99159 -0.272711,4.13302 3.666376,3.37796 6.853409,-1.31368 11.796238,3.90557 8.956628,9.45752 -1.643681,3.21369 -5.701297,4.87697 -10.146493,4.15919 z M 114.05763,127.147 c -2.93671,-1.43755 -3.36448,-5.9473 -0.72402,-7.63294 2.67266,-1.7062 6.03904,-0.66219 7.23206,2.24287 1.48162,3.60779 -2.83892,7.18614 -6.50804,5.39007 z"
       id="path51" /></g><g
     inkscape:groupmode="layer"
     id="layer3"
     inkscape:label="Livello 3"
     transform="translate(-15.468165,-31.516389)"><rect
       style="fill:#370062;fill-opacity:1;stroke-width:0.25;stroke-dasharray:none"
       id="rect13"
       width="3.6744728"
       height="55.78603"
       x="48.728901"
       y="10.401637"
       ry="2.0025632"
       rx="0"
       transform="rotate(25.977418)" /><rect
       style="fill:#370062;fill-opacity:1;stroke-width:0.253577;stroke-dasharray:none;paint-order:stroke fill markers"
       id="rect14"
       width="3.1045005"
       height="78.456078"
       x="58.958595"
       y="-7.7817521"
       ry="2.0806472"
       rx="0"
       transform="matrix(0.77008444,0.63794197,-0.43905951,0.89845798,0,0)" /><rect
       style="fill:#370062;fill-opacity:1;stroke-width:0.25;stroke-dasharray:none"
       id="rect13-4"
       width="3.6744728"
       height="55.78603"
       x="203.31567"
       y="45.857552"
       ry="2.0025632"
       rx="0"
       transform="rotate(25.977418)" /><rect
       style="fill:#370062;fill-opacity:1;stroke-width:0.253577;stroke-dasharray:none;paint-order:stroke fill markers"
       id="rect14-8"
       width="3.1045005"
       height="78.456078"
       x="201.12408"
       y="-20.076481"
       ry="2.0806472"
       rx="0"
       transform="matrix(0.77008444,0.63794197,-0.43905951,0.89845798,0,0)" /></g></svg>
